<svg width="83" height="115" viewBox="0 0 83 115" fill="none" xmlns="http://www.w3.org/2000/svg">
<path d="M50.6623 42.0073C43.4732 17.1849 25.81 5.49791 0 0.100719C24.6879 -1.09067 48.2499 8.1576 60.4568 34.7811C67.2082 49.5059 66.8567 66.8789 59.914 81.5145C46.6891 109.393 22.9677 116.074 0 114.867C27.6127 107.888 43.048 97.2521 50.2126 74.3666C53.4904 63.8965 53.7144 52.5454 50.6623 42.0073Z" fill="white"/>
<path d="M80.5 49H9.5C8.11929 49 7 47.8807 7 46.5C7 45.1193 8.11929 44 9.5 44H80.5C81.8807 44 83 45.1193 83 46.5C83 47.8807 81.8807 49 80.5 49Z" fill="white"/>
<path d="M80.5 71H9.5C8.11929 71 7 69.8807 7 68.5C7 67.1193 8.11929 66 9.5 66H80.5C81.8807 66 83 67.1193 83 68.5C83 69.8807 81.8807 71 80.5 71Z" fill="white"/>
</svg>
