<svg width="24" height="24" viewBox="0 0 24 24" fill="none" xmlns="http://www.w3.org/2000/svg">
<path d="M20.5868 5.89467C17.793 3.80427 15.1165 3.86283 15.1165 3.86283L14.8429 4.17531C18.1643 5.17179 19.7077 6.63699 19.7077 6.63699C14.9559 4.02075 8.90314 4.03947 3.96058 6.63699C3.96058 6.63699 5.56258 5.09355 9.0793 4.09707L8.88394 3.86259C8.88394 3.86259 6.2269 3.80403 3.41362 5.89443C3.41362 5.89443 0.600342 10.9546 0.600342 17.1869C0.600342 17.1869 2.24146 20.0002 6.5593 20.137C6.5593 20.137 7.28218 19.2773 7.86826 18.535C5.3869 17.7927 4.44922 16.2492 4.44922 16.2492C6.00802 17.2246 7.58434 17.8352 9.5485 18.2225C12.7443 18.8804 16.7195 18.204 19.6883 16.2492C19.6883 16.2492 18.7115 17.8318 16.1521 18.5547C16.7382 19.2776 17.4416 20.1176 17.4416 20.1176C21.759 19.981 23.4001 17.1677 23.4001 17.1872C23.4001 10.9548 20.5868 5.89467 20.5868 5.89467ZM8.35642 15.3704C7.26226 15.3704 6.3637 14.413 6.3637 13.2212C6.44362 10.3671 10.2894 10.376 10.3494 13.2212C10.3491 14.413 9.47002 15.3704 8.35642 15.3704ZM15.4875 15.3704C14.3934 15.3704 13.4948 14.413 13.4948 13.2212C13.5827 10.3726 17.3804 10.3714 17.4805 13.2212C17.4803 14.413 16.6011 15.3704 15.4875 15.3704Z" fill="white"/>
</svg>
