<svg width="24" height="24" viewBox="0 0 24 24" fill="none" xmlns="http://www.w3.org/2000/svg">
<g clip-path="url(#clip0_1_257)">
<path d="M9 14.25L8.25 14.2485V14.25H9ZM15.75 14.25H16.5L15.75 14.2485V14.25Z" fill="white"/>
<path d="M24.105 12.0001C24.105 10.3456 22.7595 9.00007 21.105 9.00007C20.4435 9.00007 19.815 9.21607 19.302 9.60757C17.628 8.44507 15.435 7.75207 13.1025 7.57657L14.361 4.62457L18.0225 5.47957C18.1395 6.61207 19.0875 7.50007 20.25 7.50007C21.4905 7.50007 22.5 6.49057 22.5 5.25007C22.5 4.00957 21.4905 3.00007 20.25 3.00007C19.464 3.00007 18.7725 3.40657 18.3705 4.02007L14.091 3.01957C13.9189 2.97894 13.7379 3.00046 13.5801 3.08033C13.4222 3.1602 13.2977 3.29329 13.2285 3.45607L11.4885 7.53607C8.97001 7.62307 6.57001 8.33257 4.75801 9.56857C4.30983 9.24579 3.78132 9.05286 3.2306 9.011C2.67988 8.96914 2.12828 9.07997 1.63647 9.3313C1.14466 9.58264 0.731683 9.96474 0.442968 10.4356C0.154253 10.9064 0.000980817 11.4478 7.04822e-06 12.0001C-0.00114436 12.5287 0.138796 13.048 0.405383 13.5044C0.67197 13.9609 1.05554 14.3379 1.51651 14.5966C1.50493 14.7308 1.49942 14.8654 1.50001 15.0001C1.50001 19.1356 6.21001 22.5001 12 22.5001C17.7885 22.5001 22.5 19.1356 22.5 15.0001C22.5 14.8831 22.4955 14.7676 22.488 14.6521C22.976 14.4023 23.3854 14.0224 23.6708 13.5543C23.9562 13.0862 24.1065 12.5483 24.105 12.0001ZM20.25 4.50007C20.4493 4.50047 20.6403 4.58002 20.781 4.72124C20.9216 4.86245 21.0004 5.05376 21 5.25307C20.9996 5.45238 20.9201 5.64337 20.7788 5.78402C20.6376 5.92467 20.4463 6.00347 20.247 6.00307C20.1483 6.00287 20.0506 5.98324 19.9595 5.94529C19.8684 5.90734 19.7857 5.85182 19.7161 5.7819C19.6464 5.71198 19.5912 5.62902 19.5536 5.53777C19.5161 5.44652 19.4968 5.34876 19.497 5.25007C19.4972 5.15138 19.5168 5.0537 19.5548 4.9626C19.5927 4.8715 19.6483 4.78876 19.7182 4.71912C19.7881 4.64947 19.8711 4.59428 19.9623 4.5567C20.0536 4.51912 20.1513 4.49987 20.25 4.50007ZM6.75001 14.2501C6.75001 13.4236 7.42351 12.7501 8.25001 12.7501C9.07651 12.7501 9.75001 13.4236 9.75001 14.2501C9.73273 14.6363 9.56715 15.001 9.28773 15.2682C9.00832 15.5353 8.63661 15.6845 8.25001 15.6845C7.8634 15.6845 7.49169 15.5353 7.21228 15.2682C6.93287 15.001 6.76728 14.6363 6.75001 14.2501ZM15.4635 19.2256C14.4561 19.9553 13.2439 20.3482 12 20.3482C10.7561 20.3482 9.54391 19.9553 8.53651 19.2256C8.45427 19.1688 8.38419 19.0963 8.33039 19.0121C8.27659 18.9279 8.24015 18.8338 8.22322 18.7353C8.20628 18.6369 8.20919 18.536 8.23177 18.4387C8.25435 18.3414 8.29615 18.2495 8.35471 18.1686C8.41327 18.0876 8.48742 18.0192 8.57279 17.9673C8.65816 17.9154 8.75304 17.8811 8.85186 17.8664C8.95068 17.8517 9.05144 17.8568 9.14823 17.8816C9.24503 17.9064 9.3359 17.9502 9.41551 18.0106C10.1669 18.556 11.0715 18.8497 12 18.8497C12.9285 18.8497 13.8331 18.556 14.5845 18.0106C14.6641 17.9502 14.755 17.9064 14.8518 17.8816C14.9486 17.8568 15.0493 17.8517 15.1482 17.8664C15.247 17.8811 15.3419 17.9154 15.4272 17.9673C15.5126 18.0192 15.5867 18.0876 15.6453 18.1686C15.7039 18.2495 15.7457 18.3414 15.7682 18.4387C15.7908 18.536 15.7937 18.6369 15.7768 18.7353C15.7599 18.8338 15.7234 18.9279 15.6696 19.0121C15.6158 19.0963 15.5457 19.1688 15.4635 19.2256ZM15.75 15.7501C15.3522 15.7501 14.9707 15.592 14.6893 15.3107C14.408 15.0294 14.25 14.6479 14.25 14.2501C14.25 13.8522 14.408 13.4707 14.6893 13.1894C14.9707 12.9081 15.3522 12.7501 15.75 12.7501C16.1478 12.7501 16.5294 12.9081 16.8107 13.1894C17.092 13.4707 17.25 13.8522 17.25 14.2501C17.25 14.6479 17.092 15.0294 16.8107 15.3107C16.5294 15.592 16.1478 15.7501 15.75 15.7501Z" fill="white"/>
</g>
<defs>
<clipPath id="clip0_1_257">
<rect width="24" height="24" fill="white"/>
</clipPath>
</defs>
</svg>
