<svg width="24" height="24" viewBox="0 0 24 24" fill="none" xmlns="http://www.w3.org/2000/svg">
<path d="M17.4899 7.64534C18.226 6.75362 18.9567 4.67294 15.8898 7.19948C13.0248 9.58819 10.1404 11.9425 7.23707 14.2622C6.79496 14.5044 6.31699 14.6358 5.83189 14.6486C5.34679 14.6613 4.86456 14.5552 4.41417 14.3365C2.57402 13.6677 0.425847 12.776 0.425847 12.776C0.425847 12.776 -1.04094 11.6597 1.46993 10.4707C1.46993 10.4707 12.0855 5.19311 15.7671 3.33374C17.1779 2.59064 21.9636 0.212724 21.9636 0.212724C21.9636 0.212724 24.1731 -0.829231 23.9891 1.69892C23.9278 2.73926 23.4371 6.38368 22.9464 10.3221C22.209 15.897 21.4116 21.9936 21.4116 21.9936C21.4116 21.9936 21.2889 23.7028 20.2461 24C19.1299 23.9771 18.0514 23.5067 17.1792 22.6624C16.9339 22.4395 12.5775 19.0939 10.9814 17.4591C10.819 17.3259 10.6871 17.145 10.5979 16.9334C10.5087 16.7218 10.4652 16.4863 10.4713 16.2489C10.4774 16.0114 10.533 15.7797 10.6329 15.5752C10.7328 15.3708 10.8738 15.2003 11.0427 15.0796C13.2319 12.6531 15.3814 10.1745 17.4899 7.64534V7.64534Z" fill="white"/>
</svg>
