<svg width="24" height="24" viewBox="0 0 24 24" fill="none" xmlns="http://www.w3.org/2000/svg">
<path d="M24 5.30842C23.0972 5.70218 22.1424 5.96386 21.165 6.08542C22.195 5.47436 22.9651 4.50677 23.3295 3.36592C22.365 3.93793 21.3098 4.34074 20.2095 4.55692C19.5349 3.83659 18.6592 3.3358 17.6962 3.11961C16.7333 2.90343 15.7276 2.98184 14.8098 3.34466C13.892 3.70748 13.1045 4.33794 12.5496 5.15413C11.9948 5.97031 11.6982 6.9345 11.6985 7.92142C11.6985 8.31142 11.7315 8.68642 11.8125 9.04342C9.85512 8.94746 7.94004 8.43944 6.19245 7.5526C4.44487 6.66575 2.90414 5.42005 1.671 3.89692C1.03923 4.97971 0.843913 6.26259 1.12482 7.48433C1.40574 8.70607 2.14175 9.77481 3.183 10.4729C2.40414 10.452 1.64171 10.2442 0.96 9.86692V9.92092C0.961305 11.0571 1.354 12.1581 2.07198 13.0386C2.78995 13.9191 3.78937 14.5254 4.902 14.7554C4.48108 14.8664 4.04728 14.9208 3.612 14.9174C3.29938 14.923 2.98708 14.8948 2.6805 14.8334C2.99841 15.81 3.61124 16.6639 4.43459 17.2778C5.25795 17.8916 6.25134 18.2351 7.278 18.2609C5.53641 19.623 3.38846 20.3619 1.1775 20.3594C0.774 20.3594 0.387 20.3414 0 20.2919C2.24982 21.7417 4.87151 22.5087 7.548 22.4999C16.602 22.4999 21.552 14.9999 21.552 8.49892C21.552 8.28142 21.5445 8.07142 21.534 7.86292C22.5044 7.1684 23.3401 6.30274 24 5.30842Z" fill="white"/>
</svg>
